<svg width="180" height="55" viewBox="0 0 180 55" fill="none" xmlns="http://www.w3.org/2000/svg">
<path d="M73.5641 44C72.7961 44 72.2201 43.584 71.8361 42.752L61.1801 20.144C60.9881 19.728 60.9721 19.312 61.1321 18.896C61.2921 18.48 61.6121 18.16 62.0921 17.936C62.5401 17.712 62.9721 17.68 63.3881 17.84C63.8041 18 64.1241 18.288 64.3481 18.704L73.5641 38.672L82.6841 18.704C82.8761 18.256 83.1961 17.968 83.6441 17.84C84.1241 17.68 84.5881 17.696 85.0361 17.888C85.4841 18.112 85.7881 18.448 85.9481 18.896C86.1081 19.312 86.0921 19.712 85.9001 20.096L75.3881 42.752C75.0041 43.584 74.3961 44 73.5641 44ZM89.7274 32.72C89.2154 32.72 88.7834 32.544 88.4314 32.192C88.0794 31.84 87.9034 31.408 87.9034 30.896C87.9034 30.352 88.0794 29.904 88.4314 29.552C88.7834 29.2 89.2154 29.024 89.7274 29.024H101.007C101.551 29.024 101.999 29.2 102.351 29.552C102.703 29.904 102.879 30.352 102.879 30.896C102.879 31.408 102.703 31.84 102.351 32.192C101.999 32.544 101.551 32.72 101.007 32.72H89.7274ZM114.093 44C112.173 44 110.589 43.232 109.341 41.696C108.093 40.128 107.469 38.128 107.469 35.696V8.336C107.469 7.792 107.629 7.36 107.949 7.04C108.301 6.688 108.749 6.512 109.293 6.512C109.837 6.512 110.269 6.688 110.589 7.04C110.941 7.36 111.117 7.792 111.117 8.336V35.696C111.117 37.072 111.389 38.192 111.933 39.056C112.509 39.92 113.229 40.352 114.093 40.352H115.293C115.773 40.352 116.157 40.528 116.445 40.88C116.733 41.2 116.877 41.632 116.877 42.176C116.877 42.72 116.669 43.168 116.253 43.52C115.869 43.84 115.357 44 114.717 44H114.093ZM131.755 44.24C129.195 44.24 126.907 43.664 124.891 42.512C122.875 41.36 121.291 39.776 120.139 37.76C118.987 35.744 118.411 33.456 118.411 30.896C118.411 28.304 118.987 26 120.139 23.984C121.291 21.968 122.875 20.384 124.891 19.232C126.907 18.08 129.195 17.504 131.755 17.504C134.315 17.504 136.587 18.08 138.571 19.232C140.587 20.384 142.171 21.968 143.323 23.984C144.475 26 145.067 28.304 145.099 30.896C145.099 33.456 144.507 35.744 143.323 37.76C142.171 39.776 140.587 41.36 138.571 42.512C136.587 43.664 134.315 44.24 131.755 44.24ZM131.755 40.88C133.611 40.88 135.275 40.448 136.747 39.584C138.219 38.72 139.371 37.536 140.203 36.032C141.035 34.528 141.451 32.816 141.451 30.896C141.451 28.976 141.035 27.264 140.203 25.76C139.371 24.224 138.219 23.024 136.747 22.16C135.275 21.296 133.611 20.864 131.755 20.864C129.899 20.864 128.235 21.296 126.763 22.16C125.291 23.024 124.123 24.224 123.259 25.76C122.427 27.264 122.011 28.976 122.011 30.896C122.011 32.816 122.427 34.528 123.259 36.032C124.123 37.536 125.291 38.72 126.763 39.584C128.235 40.448 129.899 40.88 131.755 40.88ZM163.135 44.24C160.607 44.24 158.367 43.68 156.415 42.56C154.463 41.408 152.927 39.824 151.807 37.808C150.719 35.792 150.175 33.488 150.175 30.896C150.175 28.272 150.751 25.952 151.903 23.936C153.055 21.92 154.639 20.352 156.655 19.232C158.671 18.08 160.959 17.504 163.519 17.504C166.111 17.504 168.399 18.08 170.383 19.232C172.399 20.352 173.967 21.92 175.087 23.936C176.24 25.952 176.832 28.272 176.863 30.896V40.688C176.863 43.28 176.287 45.6 175.135 47.648C173.983 49.728 172.415 51.36 170.431 52.544C168.447 53.76 166.175 54.368 163.615 54.368C161.087 54.368 158.863 53.888 156.943 52.928C155.023 52 153.439 50.72 152.191 49.088C151.839 48.704 151.679 48.288 151.711 47.84C151.775 47.392 152.015 47.024 152.431 46.736C152.847 46.448 153.311 46.352 153.823 46.448C154.335 46.544 154.735 46.784 155.023 47.168C155.951 48.32 157.135 49.248 158.575 49.952C160.047 50.656 161.743 51.008 163.663 51.008C165.455 51.008 167.071 50.576 168.511 49.712C169.951 48.848 171.087 47.632 171.919 46.064C172.783 44.496 173.215 42.656 173.215 40.544V38.336C172.255 40.16 170.895 41.6 169.135 42.656C167.407 43.712 165.407 44.24 163.135 44.24ZM163.519 40.88C165.407 40.88 167.071 40.464 168.511 39.632C169.983 38.768 171.135 37.584 171.967 36.08C172.799 34.576 173.215 32.848 173.215 30.896C173.215 28.944 172.799 27.216 171.967 25.712C171.135 24.176 169.983 22.992 168.511 22.16C167.071 21.296 165.407 20.864 163.519 20.864C161.631 20.864 159.951 21.296 158.479 22.16C157.007 22.992 155.855 24.176 155.023 25.712C154.191 27.216 153.775 28.944 153.775 30.896C153.775 32.848 154.191 34.576 155.023 36.08C155.855 37.584 157.007 38.768 158.479 39.632C159.951 40.464 161.631 40.88 163.519 40.88Z" fill="white"/>
<path d="M1 20.3467V1L44 20.3467V30.6482L1 51V30.6482L17.8664 25.8744L1 20.3467Z" fill="#3FBA84" stroke="#3FBA84"/>
</svg>
